<svg width="22" height="22" viewBox="0 0 22 22" fill="none" xmlns="http://www.w3.org/2000/svg">
<path d="M11 22C4.9247 22 0 17.0753 0 11C0 4.9247 4.9247 0 11 0C17.0753 0 22 4.9247 22 11C22 17.0753 17.0753 22 11 22ZM11 19.8C13.3339 19.8 15.5722 18.8729 17.2225 17.2225C18.8729 15.5722 19.8 13.3339 19.8 11C19.8 8.66609 18.8729 6.42778 17.2225 4.77746C15.5722 3.12714 13.3339 2.2 11 2.2C8.66609 2.2 6.42778 3.12714 4.77746 4.77746C3.12714 6.42778 2.2 8.66609 2.2 11C2.2 13.3339 3.12714 15.5722 4.77746 17.2225C6.42778 18.8729 8.66609 19.8 11 19.8ZM11 16.5C10.7083 16.5 10.4285 16.3841 10.2222 16.1778C10.0159 15.9715 9.9 15.6917 9.9 15.4C9.9 15.1083 10.0159 14.8285 10.2222 14.6222C10.4285 14.4159 10.7083 14.3 11 14.3C11.2917 14.3 11.5715 14.4159 11.7778 14.6222C11.9841 14.8285 12.1 15.1083 12.1 15.4C12.1 15.6917 11.9841 15.9715 11.7778 16.1778C11.5715 16.3841 11.2917 16.5 11 16.5ZM12.4036 12.9602C12.1737 13.1399 11.8818 13.2209 11.5922 13.1855C11.3026 13.15 11.0389 13.0009 10.8592 12.771C10.6795 12.5411 10.5985 12.2492 10.6339 11.9596C10.6694 11.67 10.8185 11.4063 11.0484 11.2266L11.4818 10.8878C11.6533 10.7547 11.7969 10.589 11.9043 10.4003C12.0117 10.2116 12.0807 10.0035 12.1075 9.78803C12.1344 9.57256 12.1184 9.35391 12.0605 9.14463C12.0027 8.93535 11.9041 8.73954 11.7704 8.56844C11.6367 8.39734 11.4706 8.25431 11.2815 8.14754C11.0924 8.04078 10.8841 7.97238 10.6686 7.94627C10.453 7.92016 10.2344 7.93686 10.0253 7.99539C9.81625 8.05393 9.62077 8.15316 9.4501 8.2874L9.0167 8.6262C8.90338 8.72002 8.77238 8.79016 8.63147 8.83246C8.49056 8.87476 8.3426 8.88837 8.19634 8.87247C8.05007 8.85657 7.90849 8.81149 7.77996 8.7399C7.65142 8.66832 7.53856 8.57167 7.44804 8.45569C7.35752 8.33971 7.29119 8.20675 7.25297 8.06468C7.21475 7.92261 7.20542 7.77431 7.22552 7.62857C7.24563 7.48283 7.29477 7.3426 7.37004 7.21618C7.4453 7.08977 7.54516 6.97974 7.6637 6.8926L8.096 6.5538C8.90061 5.9251 9.92202 5.64179 10.9355 5.76618C11.949 5.89058 12.8716 6.41249 13.5003 7.2171C14.129 8.02171 14.4123 9.04312 14.2879 10.0566C14.1635 11.0701 13.6416 11.9927 12.837 12.6214L12.4036 12.9602Z" fill="#747D8C"/>
</svg>
