<svg width="23" height="22" viewBox="0 0 23 22" fill="none" xmlns="http://www.w3.org/2000/svg">
<path d="M14.95 22V16.4072C14.95 15.5172 14.5865 14.6636 13.9395 14.0343C13.2925 13.405 12.415 13.0515 11.5 13.0515C10.585 13.0515 9.70748 13.405 9.06048 14.0343C8.41348 14.6636 8.05 15.5172 8.05 16.4072V22H2.3C1.69 22 1.10499 21.7643 0.673654 21.3448C0.242321 20.9252 1.06478e-10 20.3562 1.06478e-10 19.7629V7.60628C-3.82115e-06 7.21995 0.102845 6.84022 0.298532 6.50404C0.494219 6.16786 0.776073 5.8867 1.11665 5.68794L10.3166 0.318813C10.6741 0.110198 11.0831 0 11.5 0C11.9169 0 12.3259 0.110198 12.6833 0.318813L21.8833 5.68794C22.2239 5.8867 22.5058 6.16786 22.7015 6.50404C22.8972 6.84022 23 7.21995 23 7.60628V19.7629C23 20.3562 22.7577 20.9252 22.3263 21.3448C21.895 21.7643 21.31 22 20.7 22H14.95Z" fill="#EC2028"/>
</svg>
