<svg width="22" height="16" viewBox="0 0 22 16" fill="none" xmlns="http://www.w3.org/2000/svg">
<path d="M3.9578 2.23041L10.2795 7.94028C10.4809 8.12213 10.7413 8.2226 11.011 8.2226C11.2807 8.2226 11.5411 8.12213 11.7425 7.94028L18.0653 2.23041H3.9578ZM19.8 3.65007L13.2066 9.6064C12.6021 10.1526 11.8207 10.4544 11.011 10.4544C10.2013 10.4544 9.41987 10.1526 8.8154 9.6064L2.2 3.62888V13.3825H19.8V3.65007ZM2.2 0H19.8C20.3835 0 20.9431 0.234989 21.3556 0.653273C21.7682 1.07156 22 1.63887 22 2.23041V13.3825C22 13.974 21.7682 14.5413 21.3556 14.9596C20.9431 15.3779 20.3835 15.6129 19.8 15.6129H2.2C1.61652 15.6129 1.05694 15.3779 0.644365 14.9596C0.231785 14.5413 0 13.974 0 13.3825V2.23041C0 1.63887 0.231785 1.07156 0.644365 0.653273C1.05694 0.234989 1.61652 0 2.2 0Z" fill="#747D8C"/>
</svg>
