<svg width="18" height="18" viewBox="0 0 18 18" fill="none" xmlns="http://www.w3.org/2000/svg">
<path d="M1.5 0.75H7.5C7.69891 0.75 7.88968 0.829018 8.03033 0.96967C8.17098 1.11032 8.25 1.30109 8.25 1.5V7.5C8.25 7.69891 8.17098 7.88968 8.03033 8.03033C7.88968 8.17098 7.69891 8.25 7.5 8.25H1.5C1.30109 8.25 1.11032 8.17098 0.96967 8.03033C0.829018 7.88968 0.75 7.69891 0.75 7.5V1.5C0.75 1.30109 0.829018 1.11032 0.96967 0.96967C1.11032 0.829018 1.30109 0.75 1.5 0.75ZM2.25 2.25V6.75H6.75V2.25H2.25Z" fill="white"/>
<path fill-rule="evenodd" clip-rule="evenodd" d="M3.75 3.75H5.25V5.25H3.75V3.75Z" fill="white"/>
<path d="M10.5 0.75H16.5C16.6989 0.75 16.8897 0.829018 17.0303 0.96967C17.171 1.11032 17.25 1.30109 17.25 1.5V7.5C17.25 7.69891 17.171 7.88968 17.0303 8.03033C16.8897 8.17098 16.6989 8.25 16.5 8.25H10.5C10.3011 8.25 10.1103 8.17098 9.96967 8.03033C9.82902 7.88968 9.75 7.69891 9.75 7.5V1.5C9.75 1.30109 9.82902 1.11032 9.96967 0.96967C10.1103 0.829018 10.3011 0.75 10.5 0.75ZM11.25 2.25V6.75H15.75V2.25H11.25Z" fill="white"/>
<path fill-rule="evenodd" clip-rule="evenodd" d="M12.75 3.75H14.25V5.25H12.75V3.75Z" fill="white"/>
<path d="M1.5 9.75H7.5C7.69891 9.75 7.88968 9.82902 8.03033 9.96967C8.17098 10.1103 8.25 10.3011 8.25 10.5V16.5C8.25 16.6989 8.17098 16.8897 8.03033 17.0303C7.88968 17.171 7.69891 17.25 7.5 17.25H1.5C1.30109 17.25 1.11032 17.171 0.96967 17.0303C0.829018 16.8897 0.75 16.6989 0.75 16.5V10.5C0.75 10.3011 0.829018 10.1103 0.96967 9.96967C1.11032 9.82902 1.30109 9.75 1.5 9.75ZM2.25 11.25V15.75H6.75V11.25H2.25Z" fill="white"/>
<path fill-rule="evenodd" clip-rule="evenodd" d="M3.75 12.75H5.25V14.25H3.75V12.75Z" fill="white"/>
<path d="M17.25 14.25H14.25V17.25H10.5C10.3011 17.25 10.1103 17.171 9.96967 17.0303C9.82902 16.8897 9.75 16.6989 9.75 16.5V10.5V14.25H11.25V15.75H12.75V11.25H11.25V9.75H10.5H12.75V11.25H14.25V12.75H15.75V9.75H16.5C16.6989 9.75 16.8897 9.82902 17.0303 9.96967C17.171 10.1103 17.25 10.3011 17.25 10.5V14.25ZM17.25 15.75V16.5C17.25 16.6989 17.171 16.8897 17.0303 17.0303C16.8897 17.171 16.6989 17.25 16.5 17.25H15.75V15.75H17.25Z" fill="white"/>
</svg>
