<svg width="22" height="22" viewBox="0 0 22 22" fill="none" xmlns="http://www.w3.org/2000/svg">
<path d="M12.1 9.9H16.5C16.7917 9.9 17.0715 10.0159 17.2778 10.2222C17.4841 10.4285 17.6 10.7083 17.6 11C17.6 11.2917 17.4841 11.5715 17.2778 11.7778C17.0715 11.9841 16.7917 12.1 16.5 12.1H11C10.7083 12.1 10.4285 11.9841 10.2222 11.7778C10.0159 11.5715 9.9 11.2917 9.9 11V4.4C9.9 4.10826 10.0159 3.82847 10.2222 3.62218C10.4285 3.41589 10.7083 3.3 11 3.3C11.2917 3.3 11.5715 3.41589 11.7778 3.62218C11.9841 3.82847 12.1 4.10826 12.1 4.4V9.9ZM11 22C4.9247 22 0 17.0753 0 11C0 4.9247 4.9247 0 11 0C17.0753 0 22 4.9247 22 11C22 17.0753 17.0753 22 11 22ZM11 19.8C13.3339 19.8 15.5722 18.8729 17.2225 17.2225C18.8729 15.5722 19.8 13.3339 19.8 11C19.8 8.66609 18.8729 6.42778 17.2225 4.77746C15.5722 3.12714 13.3339 2.2 11 2.2C8.66609 2.2 6.42778 3.12714 4.77746 4.77746C3.12714 6.42778 2.2 8.66609 2.2 11C2.2 13.3339 3.12714 15.5722 4.77746 17.2225C6.42778 18.8729 8.66609 19.8 11 19.8Z" fill="#747D8C"/>
</svg>
